<?xml version="1.0" encoding="UTF-8" standalone="no"?>
<svg
   xmlns:dc="http://purl.org/dc/elements/1.1/"
   xmlns:cc="http://creativecommons.org/ns#"
   xmlns:rdf="http://www.w3.org/1999/02/22-rdf-syntax-ns#"
   xmlns:svg="http://www.w3.org/2000/svg"
   xmlns="http://www.w3.org/2000/svg"
   xmlns:sodipodi="http://sodipodi.sourceforge.net/DTD/sodipodi-0.dtd"
   xmlns:inkscape="http://www.inkscape.org/namespaces/inkscape"
   sodipodi:docname="camera3.svg"
   inkscape:version="1.0 (4035a4f, 2020-05-01)"
   id="svg892"
   version="1.1"
   viewBox="0 0 210 297"
   height="297mm"
   width="210mm">
  <defs
     id="defs886" />
  <sodipodi:namedview
     inkscape:window-maximized="0"
     inkscape:window-y="23"
     inkscape:window-x="391"
     inkscape:window-height="922"
     inkscape:window-width="1252"
     showgrid="false"
     inkscape:document-rotation="0"
     inkscape:current-layer="layer1"
     inkscape:document-units="mm"
     inkscape:cy="554.16654"
     inkscape:cx="443.95242"
     inkscape:zoom="1.0997212"
     inkscape:pageshadow="2"
     inkscape:pageopacity="0.0"
     borderopacity="1.0"
     bordercolor="#666666"
     pagecolor="#ffffff"
     id="base" />
  <metadata
     id="metadata889">
    <rdf:RDF>
      <cc:Work
         rdf:about="">
        <dc:format>image/svg+xml</dc:format>
        <dc:type
           rdf:resource="http://purl.org/dc/dcmitype/StillImage" />
        <dc:title></dc:title>
      </cc:Work>
    </rdf:RDF>
  </metadata>
  <g
     id="layer1"
     inkscape:groupmode="layer"
     inkscape:label="Layer 1">
    <path
       sodipodi:nodetypes="cccccccccc"
       d="m 108.28695,78.696912 c -13.835369,3.14139 -21.752179,16.028177 -32.214897,24.417868 -7.204037,6.57853 -14.130726,13.45207 -21.010049,20.36697 -0.739519,7.60534 9.160194,5.67809 14.027267,6.39439 5.464153,0.35244 9.659183,4.98788 15.326105,4.71494 5.508432,0.50933 10.875081,-3.17154 12.43667,-8.47324 8.930144,-10.18012 21.172464,-16.66136 30.435944,-26.505876 1.50015,-3.963514 12.44069,-9.887535 11.185,-12.352909 -4.48772,-2.362696 -13.03579,-4.696983 -17.8166,-6.506504 -4.03816,-1.090643 -8.16279,-2.054504 -12.36944,-2.055639 z"
       style="fill:none;stroke:#000000;stroke-width:1.365;stroke-linecap:butt;stroke-linejoin:miter;stroke-opacity:1;stroke-miterlimit:4;stroke-dasharray:none"
       id="path1455" />
    <path
       sodipodi:nodetypes="cccccc"
       d="m 55.535424,126.8977 c -5.015853,6.65424 -2.048435,16.79014 -1.545182,24.34481 0.409844,10.26116 2.519459,20.38594 2.88794,30.63577 2.195455,6.62847 10.277861,7.30814 15.804452,9.77874 5.535121,3.39863 11.928217,4.60944 17.933205,6.91659 1.002549,0.46067 1.971507,0.99836 2.876093,1.63134"
       style="fill:none;stroke:#000000;stroke-width:1.365;stroke-linecap:butt;stroke-linejoin:miter;stroke-opacity:1;stroke-miterlimit:4;stroke-dasharray:none"
       id="path1470" />
    <path
       sodipodi:nodetypes="cccc"
       d="m 88.140542,134.20678 c -1.272142,16.17547 7.46371,31.91418 5.543787,48.11508 0.742849,5.67035 3.269197,11.46374 1.830914,17.17987 -0.330764,0.75303 -1.304696,1.00397 -2.023307,0.70322"
       style="fill:none;stroke:#000000;stroke-width:1.365;stroke-linecap:butt;stroke-linejoin:miter;stroke-opacity:1;stroke-miterlimit:4;stroke-dasharray:none"
       id="path1472" />
    <path
       sodipodi:nodetypes="ccccc"
       d="m 80.270849,113.95313 c -7.940023,-1.97449 -6.352096,10.85786 0.825493,7.17372 7.595504,-0.54071 5.074217,-11.98504 -1.904836,-7.81035 -7.842208,1.55405 -6.221505,14.03341 2.249539,11.08588 5.578559,-0.41755 7.82742,-5.2544 3.689146,-10.13434"
       style="fill:none;stroke:#000000;stroke-width:1.365;stroke-linecap:butt;stroke-linejoin:miter;stroke-opacity:1;stroke-miterlimit:4;stroke-dasharray:none"
       id="path1486" />
    <path
       d="m 165.5783,131.26645 c -9.02583,-0.0957 -14.11461,8.97363 -16.55322,16.49177 -4.48368,12.40158 -2.6723,29.19228 9.33744,36.70849 6.21532,4.02707 15.92466,5.14262 20.75017,-1.6465 3.42651,-6.8684 3.71742,-14.9409 3.95605,-22.50166 -0.39134,-7.27413 -0.29661,-15.08776 -3.68701,-21.69593 -2.75585,-4.61235 -8.08897,-9.02941 -13.80343,-7.35617 z"
       style="fill:none;stroke:#000000;stroke-width:1.365;stroke-linecap:butt;stroke-linejoin:miter;stroke-opacity:1;stroke-miterlimit:4;stroke-dasharray:none"
       id="path1493" />
    <path
       d="m 165.5783,131.26645 c 7.00417,0.47752 9.30052,8.31453 9.82283,14.1582 0.77514,9.92153 2.74955,20.18871 0.10292,29.97585 -1.72804,5.31853 -5.94523,9.69631 -10.87011,12.21294"
       style="fill:none;stroke:#000000;stroke-width:1.365;stroke-linecap:butt;stroke-linejoin:miter;stroke-opacity:1;stroke-miterlimit:4;stroke-dasharray:none"
       id="path1501" />
    <path
       d="m 145.74668,128.11857 c 5.83382,0.83047 17.93819,1.52756 20.02205,3.12737 l -0.19043,0.0208"
       style="fill:none;stroke:#000000;stroke-width:1.365;stroke-linecap:butt;stroke-linejoin:miter;stroke-opacity:1;stroke-miterlimit:4;stroke-dasharray:none"
       id="path1508" />
    <path
       d="m 140.39529,184.46556 c 9.18743,-0.65656 17.96068,3.84916 27.16215,2.68872 -0.57852,-0.006 -1.15703,-0.0125 -1.73555,-0.0187"
       style="fill:none;stroke:#000000;stroke-width:1.365;stroke-linecap:butt;stroke-linejoin:miter;stroke-opacity:1;stroke-miterlimit:4;stroke-dasharray:none"
       id="path1520" />
    <path
       d="m 145.74668,128.11857 c -10.34084,6.53769 -13.8513,20.0018 -12.85609,31.58538 0.34679,8.43811 1.3373,17.78511 7.5229,24.1427 l -0.0105,0.35884 -0.008,0.26007"
       style="fill:none;stroke:#000000;stroke-width:1.365;stroke-linecap:butt;stroke-linejoin:miter;stroke-opacity:1;stroke-miterlimit:4;stroke-dasharray:none"
       id="path1524" />
    <path
       d="m 132.48185,156.62845 c 4.7364,0.98963 9.47279,1.97926 14.20919,2.96889"
       style="fill:none;stroke:#000000;stroke-width:1.365;stroke-linecap:butt;stroke-linejoin:miter;stroke-opacity:1;stroke-miterlimit:4;stroke-dasharray:none"
       id="path1569" />
    <path
       d="m 139.13614,134.09954 c 5.78696,0.2806 11.57393,0.56121 17.36089,0.84181"
       style="fill:none;stroke:#000000;stroke-width:1.365;stroke-linecap:butt;stroke-linejoin:miter;stroke-opacity:1;stroke-miterlimit:4;stroke-dasharray:none"
       id="path1571" />
    <path
       sodipodi:nodetypes="cc"
       d="m 134.28387,144.45695 c 4.7653,1.05949 10.18351,2.24955 14.94881,3.30904"
       style="fill:none;stroke:#000000;stroke-width:1.365;stroke-linecap:butt;stroke-linejoin:miter;stroke-opacity:1;stroke-miterlimit:4;stroke-dasharray:none"
       id="path1573" />
    <path
       d="m 133.37814,165.83146 c 4.85735,0.85998 9.7147,1.71995 14.57205,2.57993"
       style="fill:none;stroke:#000000;stroke-width:1.365;stroke-linecap:butt;stroke-linejoin:miter;stroke-opacity:1;stroke-miterlimit:4;stroke-dasharray:none"
       id="path1575" />
    <path
       sodipodi:nodetypes="cc"
       d="m 134.81445,173.50601 16.43754,3.9806"
       style="fill:none;stroke:#000000;stroke-width:1.365;stroke-linecap:butt;stroke-linejoin:miter;stroke-opacity:1;stroke-miterlimit:4;stroke-dasharray:none"
       id="path1577" />
    <path
       d="m 145.74668,128.11857 c -7.80212,-0.75712 -18.27283,1.09171 -20.96678,9.64188 -2.00064,13.14092 -2.15639,26.66854 -0.16927,39.83254 1.73689,7.04571 10.1372,6.54139 15.78469,6.87213"
       style="fill:none;stroke:#000000;stroke-width:1.365;stroke-linecap:butt;stroke-linejoin:miter;stroke-opacity:1;stroke-miterlimit:4;stroke-dasharray:none"
       id="path1581" />
    <path
       d="m 135.67374,128.87427 c -7.01492,-0.49179 -15.98955,-2.22899 -21.02758,4.04281 -5.46024,10.59357 -5.32129,23.21494 -3.72263,34.77639 0.61993,7.91277 3.96763,16.93202 12.11672,19.74849 6.31026,2.48577 10.95119,-3.5525 16.95965,-4.01697"
       style="fill:none;stroke:#000000;stroke-width:1.365;stroke-linecap:butt;stroke-linejoin:miter;stroke-opacity:1;stroke-miterlimit:4;stroke-dasharray:none"
       id="path1589" />
    <path
       d="m 52.884323,143.85795 c 10.673033,0.70328 20.863281,4.46291 31.520944,5.32061 1.820231,0.33781 3.629043,0.81335 5.309212,1.60472"
       style="fill:none;stroke:#000000;stroke-width:1.365;stroke-linecap:butt;stroke-linejoin:miter;stroke-opacity:1;stroke-miterlimit:4;stroke-dasharray:none"
       id="path1603" />
    <path
       sodipodi:nodetypes="cc"
       d="m 95.515243,199.50173 c 9.281197,-4.27538 16.578567,-9.06233 26.307707,-12.4181"
       style="fill:none;stroke:#000000;stroke-width:1.365;stroke-linecap:butt;stroke-linejoin:miter;stroke-opacity:1;stroke-miterlimit:4;stroke-dasharray:none"
       id="path1611" />
    <path
       sodipodi:nodetypes="ccc"
       d="m 138.47299,87.259055 c 0.0876,13.033645 4.23906,22.271365 3.91709,35.338845 0,0 1.06841,6.14632 3.3566,5.52082"
       style="fill:none;stroke:#000000;stroke-width:1.365;stroke-linecap:butt;stroke-linejoin:miter;stroke-opacity:1;stroke-miterlimit:4;stroke-dasharray:none"
       id="path1619" />
    <path
       d="m 89.714479,150.78328 c 11.521451,-5.54844 18.951381,-16.35613 27.960881,-24.97873 8.75423,-0.27558 19.06091,-4.74099 20.61785,-14.33854 -0.13364,-2.10278 1.12524,-3.35976 2.73165,-4.43821"
       style="fill:none;stroke:#000000;stroke-width:1.365;stroke-linecap:butt;stroke-linejoin:miter;stroke-opacity:1;stroke-miterlimit:4;stroke-dasharray:none"
       id="path1627" />
    <path
       d="m 99.998926,132.59526 c -1.945727,-0.39427 -3.613808,1.2255 -5.258832,1.98069 -1.620268,0.85006 -2.853613,2.16038 -4.190929,3.35016 -1.117065,1.38861 0.144215,3.19388 0.258726,4.74641 0.390442,2.65289 3.269227,1.95419 4.334658,0.1434 1.373947,-0.96101 2.586658,-2.27475 4.147693,-2.9209 1.980868,-0.43828 3.581448,-2.09943 5.164778,-3.23297 0.26072,-1.82921 -0.24048,-3.08324 -0.71933,-4.59589 0.0692,-2.25124 -2.29144,-1.53962 -3.52941,-0.86687 -0.536997,0.54202 -0.0736,2.16486 -1.410391,1.35705 -0.32819,-0.10379 -0.655897,-0.23866 -1.006862,-0.23737"
       style="fill:none;stroke:#000000;stroke-width:1.365;stroke-linecap:butt;stroke-linejoin:miter;stroke-opacity:1;stroke-miterlimit:4;stroke-dasharray:none"
       id="path1638" />
    <path
       transform="scale(0.26458333)"
       id="path1889"
       d="m 348.92834,750.51387 c -3.00076,-1.6898 -14.86741,-6.19536 -26.37032,-10.01236 -23.72517,-7.87271 -33.5964,-11.74127 -42.73811,-16.7492 -3.50089,-1.91782 -13.06349,-5.7902 -21.25023,-8.60527 -17.89989,-6.15501 -25.47077,-9.84082 -31.67912,-15.42266 -6.30598,-5.66962 -9.35916,-11.93746 -9.35916,-19.21331 0,-6.76896 -1.88598,-26.0527 -5.41991,-55.41747 -1.44452,-12.00304 -3.08415,-27.75703 -3.64363,-35.00887 -0.55948,-7.25184 -1.64488,-19.66672 -2.41199,-27.58863 -0.76711,-7.92192 -1.15105,-14.64718 -0.85319,-14.94504 0.97914,-0.97914 25.96221,3.20427 52.33886,8.76413 27.49018,5.79458 42.49765,8.49213 56.09188,10.08235 7.78604,0.91079 19.89153,3.95794 21.41407,5.39027 0.65878,0.61974 7.83531,32.42799 11.51389,51.03249 4.23935,21.44064 4.9196,28.207 5.11945,50.922 0.18009,20.47025 0.39472,23.16398 2.6445,33.19023 3.97755,17.72621 5.06394,25.00849 4.95137,33.19023 -0.20081,14.59533 -1.16434,15.56284 -10.34836,10.39111 z"
       style="fill:#ff7f2a;stroke:#000000;stroke-width:5.15905;stroke-linejoin:bevel;stroke-miterlimit:4;stroke-dasharray:none;stroke-opacity:1" />
    <path
       transform="scale(0.26458333)"
       id="path1891"
       d="m 365.15959,738.06987 c -0.13143,-9.84041 -0.91,-14.86264 -5.81382,-37.50259 -1.66016,-7.66461 -1.88336,-10.80754 -1.42066,-20.00507 1.08034,-21.47517 -1.71648,-43.47015 -10.8051,-84.97443 -2.78185,-12.70366 -4.74059,-23.36065 -4.35276,-23.6822 0.38784,-0.32155 4.59251,-2.86854 9.34371,-5.65998 19.1396,-11.24494 33.90673,-24.38407 67.05262,-59.66046 14.25099,-15.16697 26.37451,-27.6956 26.94117,-27.84139 0.56666,-0.14578 5.73603,-0.90626 11.48749,-1.68995 28.4615,-3.87813 51.81324,-18.0695 62.13663,-37.76181 3.2954,-6.2861 6.05997,-15.32666 6.06587,-19.83627 0.003,-2.65739 3.00348,-8.5073 4.36279,-8.5073 1.30317,0 3.94825,22.4638 4.71115,40.01014 0.71597,16.46706 1.13349,18.82996 5.02105,28.41629 0.58039,1.43118 -0.0387,1.59132 -6.15276,1.59132 -3.73894,0 -10.43214,0.642 -14.87376,1.42667 -6.97099,1.23152 -9.9802,1.27561 -21.99857,0.32228 -15.84505,-1.25687 -31.73027,-0.6953 -39.72706,1.40441 -13.2022,3.46649 -24.03231,11.25723 -28.22377,20.30302 -11.32972,24.45121 -16.01052,48.38512 -15.97805,81.69927 0.0253,25.91927 3.52401,58.5825 7.88831,73.64281 5.62967,19.42679 15.86979,35.15815 29.03727,44.60836 1.49947,1.07616 2.52245,2.10866 2.27331,2.29445 -0.24915,0.1858 -4.54495,1.94635 -9.54621,3.91235 -5.00127,1.96601 -24.32678,11.25882 -42.94559,20.65071 -18.6188,9.39188 -33.9636,17.07304 -34.09955,17.06923 -0.13595,-0.004 -0.30862,-4.60724 -0.38371,-10.22986 z"
       style="fill:#ff7f2a;stroke:#000000;stroke-width:5.15905;stroke-linejoin:bevel;stroke-miterlimit:4;stroke-dasharray:none;stroke-opacity:1" />
    <path
       transform="scale(0.26458333)"
       id="path1893"
       d="m 329.37793,563.06903 c -2.25057,-0.69214 -10.43447,-2.09618 -18.18643,-3.12009 -13.2116,-1.74505 -21.77844,-3.36128 -66.38046,-12.52341 -9.75247,-2.00335 -22.84668,-4.30691 -29.09823,-5.11903 -6.25156,-0.81211 -11.55134,-1.66144 -11.77729,-1.88739 -0.74749,-0.74749 -1.76856,-12.49145 -1.80902,-20.80678 -0.0621,-12.7535 2.87269,-26.66548 6.93204,-32.86083 1.28322,-1.95844 1.61033,-2.05704 2.91322,-0.87812 4.82718,4.36788 15.46218,6.48224 36.93123,7.34238 16.41731,0.65774 20.96313,1.80137 38.21787,9.61478 15.98757,7.23961 22.72175,9.01379 34.3005,9.03676 l 7.95657,0.0158 0.008,6.13792 c 0.0106,8.37873 1.49466,25.10045 3.23538,36.45538 0.79283,5.17169 1.30815,9.50387 1.14515,9.62707 -0.16341,0.12321 -2.13814,-0.34229 -4.38871,-1.03443 z"
       style="fill:#ffd42a;stroke:#000000;stroke-width:5.15905;stroke-linejoin:bevel;stroke-miterlimit:4;stroke-dasharray:none;stroke-opacity:1" />
    <path
       transform="scale(0.26458333)"
       id="path1895"
       d="m 339.00142,555.75785 c -2.3018,-14.94993 -3.22677,-25.21061 -3.21741,-35.69086 l 0.009,-9.54788 7.47315,-3.53915 c 10.2344,-4.84682 18.52979,-13.09872 23.0902,-22.96914 2.79232,-6.04359 4.70287,-8.49767 12.97021,-16.65999 11.25663,-11.11365 23.84506,-21.75094 47.34921,-40.01039 34.62028,-26.89511 50.1495,-40.76135 59.60216,-53.21953 2.6563,-3.50089 8.01202,-9.02502 11.90158,-12.27584 3.88957,-3.25083 10.44498,-8.87725 14.56759,-12.50317 4.1226,-3.62592 7.72119,-6.59258 7.99687,-6.59258 0.27567,0 0.50123,1.96067 0.50123,4.35704 0,5.84751 2.19132,22.20577 5.4687,40.82397 l 2.69131,15.28886 -2.27204,1.67493 c -3.60232,2.65561 -6.67937,8.81185 -7.59171,15.18875 -1.74397,12.18955 -6.68481,21.12509 -17.01562,30.77294 -11.08937,10.35624 -28.11084,17.89603 -45.54966,20.17654 -16.46288,2.15288 -12.25546,-0.89095 -40.73884,29.47225 -34.17683,36.43241 -47.67998,48.56529 -67.0387,60.23577 -4.37249,2.63597 -8.11687,4.79268 -8.32084,4.79268 -0.20397,0 -1.04814,-4.39884 -1.87592,-9.7752 z m 16.39901,-8.33279 c 2.05927,-0.93515 4.30984,-2.49532 5.00127,-3.46703 2.15349,-3.02647 14.2814,-11.87694 17.85697,-13.03132 3.45283,-1.11474 7.8257,-3.78407 15.10576,-9.22099 5.76112,-4.30255 6.03888,-7.50717 1.99423,-23.00779 -2.09659,-8.03491 -5.27796,-9.76052 -13.55732,-7.35364 -3.90483,1.13517 -5.23677,2.00897 -6.12665,4.01936 -0.90655,2.04805 -1.59107,2.48208 -3.37631,2.1408 -1.46709,-0.28045 -2.52728,0.0867 -3.07461,1.06471 -0.45947,0.82101 -1.17717,1.49276 -1.5949,1.49276 -1.86728,0 -15.47506,8.54062 -21.18189,13.29436 -6.81945,5.68053 -8.88516,8.71566 -8.88516,13.0549 0,4.24458 3.63843,17.52778 5.32799,19.45146 3.13498,3.56937 7.02215,4.05482 12.51062,1.56242 z"
       style="fill:#ffd42a;stroke:#000000;stroke-width:5.15905;stroke-linejoin:bevel;stroke-miterlimit:4;stroke-dasharray:none;stroke-opacity:1" />
    <path
       transform="scale(0.26458333)"
       id="path1897"
       d="m 306.84351,504.1053 c -2.64146,-0.71106 -10.03032,-3.71226 -16.41968,-6.66933 -17.5673,-8.13035 -21.64306,-9.15913 -40.15686,-10.13612 -18.68222,-0.98588 -23.68687,-1.56263 -28.59939,-3.29587 -6.36416,-2.2454 -10.50143,-7.49941 -10.50143,-13.33597 0,-2.88877 2.05437,-5.11481 28.41629,-30.79085 29.82693,-29.0509 40.87335,-39.50265 52.37553,-49.55595 3.82673,-3.3447 16.16457,-15.13403 27.41742,-26.19852 11.25285,-11.06449 23.52869,-22.96092 27.27964,-26.43651 19.33735,-17.91779 38.04209,-29.73747 55.35972,-34.98225 14.09786,-4.26965 33.13817,-1.01036 73.93797,12.65658 26.20087,8.77665 42.08475,14.7246 43.73877,16.37862 1.37213,1.37213 -2.4934,5.65542 -13.296,14.73296 -14.14889,11.88945 -24.02662,21.51944 -26.65576,25.98721 -4.00818,6.8112 -22.66911,23.19777 -56.24704,49.39176 -13.0033,10.1438 -26.30212,20.71917 -29.55295,23.50081 -8.96298,7.66937 -30.91692,29.4736 -30.91692,30.70609 0,2.44532 -5.84515,12.01347 -9.83039,16.09176 -9.39346,9.61276 -18.7262,13.40389 -32.7614,13.30828 -4.83168,-0.0329 -10.94606,-0.64162 -13.58752,-1.3527 z m 2.52935,-30.90349 c 13.83045,-2.83431 20.58012,-8.17591 22.78593,-18.03247 1.57339,-7.03068 -0.0436,-13.48211 -5.45801,-21.77615 -7.8412,-12.01152 -13.65597,-13.89512 -27.28578,-8.83881 -10.3256,3.83053 -13.67156,5.84599 -16.66216,10.03652 -3.65218,5.11755 -5.31131,10.54033 -5.30211,17.32966 0.0134,9.88562 3.74221,16.61618 11.28908,20.37695 5.45956,2.72061 10.65825,2.94845 20.63305,0.9043 z"
       style="fill:#ffd42a;stroke:#000000;stroke-width:5.15905;stroke-linejoin:bevel;stroke-miterlimit:4;stroke-dasharray:none;stroke-opacity:1" />
    <path
       transform="scale(0.26458333)"
       id="path1899"
       d="m 293.03237,456.16051 c -5.9833,-3.02758 -8.48546,-13.20784 -4.49362,-18.28265 2.74383,-3.4882 6.72504,-5.25898 11.09075,-4.93299 3.17063,0.23675 3.83347,-0.009 4.13671,-1.53672 0.49528,-2.49442 1.7867,-3.15244 6.21887,-3.1687 7.14091,-0.0262 12.14632,7.12098 10.66656,15.23068 -0.82471,4.51974 -6.40686,9.92795 -11.04519,10.70103 -1.87892,0.31316 -4.95898,1.15062 -6.84457,1.86102 -4.19678,1.58113 -6.79078,1.61535 -9.72951,0.12833 z"
       style="fill:#55ddff;stroke:#000000;stroke-width:5.15905;stroke-linejoin:bevel;stroke-miterlimit:4;stroke-dasharray:none;stroke-opacity:1" />
    <path
       transform="scale(0.26458333)"
       id="path1901"
       d=""
       style="fill:#55ddff;stroke:#000000;stroke-width:5.15905;stroke-linejoin:bevel;stroke-miterlimit:4;stroke-dasharray:none;stroke-opacity:1" />
    <path
       transform="scale(0.26458333)"
       id="path1903"
       d="m 293.45973,467.78439 c -3.5975,-1.26677 -8.63855,-6.1411 -8.63855,-8.35285 0,-0.72907 1.13259,-0.375 3.12458,0.9768 3.7651,2.55507 8.9247,3.4954 13.2432,2.41358 15.79929,-3.95787 20.29716,-6.43528 23.52579,-12.95792 l 1.93378,-3.90671 7.1e-4,4.10614 c 0.002,9.32383 -5.79495,14.47283 -19.42245,17.25263 -10.4385,2.1293 -9.17237,2.08623 -13.76706,0.46833 z"
       style="fill:#55ddff;stroke:#000000;stroke-width:5.15905;stroke-linejoin:bevel;stroke-miterlimit:4;stroke-dasharray:none;stroke-opacity:1" />
    <path
       transform="scale(0.26458333)"
       id="path1905"
       d="m 347.77356,541.66337 c -1.21486,-1.49639 -3.84649,-11.93811 -3.84649,-15.26201 0,-2.09906 1.21657,-3.65902 6.19557,-7.94432 7.91986,-6.81641 20.65593,-13.84852 25.0815,-13.84852 2.87208,0 3.45426,-0.40466 4.8613,-3.37901 1.14936,-2.42964 2.43316,-3.61753 4.56931,-4.22795 1.63397,-0.46691 3.17073,-0.64905 3.41504,-0.40474 0.70935,0.70935 4.02636,13.72453 4.04991,15.89091 0.0295,2.7124 -7.82613,8.86775 -16.28181,12.75778 -6.43314,2.95957 -15.27979,9.26727 -20.94988,14.93736 -2.77436,2.77436 -5.57032,3.35783 -7.09445,1.4805 z"
       style="fill:#55ddff;stroke:#000000;stroke-width:5.15905;stroke-linejoin:bevel;stroke-miterlimit:4;stroke-dasharray:none;stroke-opacity:1" />
    <path
       transform="scale(0.26458333)"
       id="path1907"
       d="m 465.06985,705.10193 c -16.28256,-6.26584 -28.8855,-20.44758 -36.06953,-40.58806 -6.1725,-17.30463 -9.82573,-45.81036 -9.94654,-77.61176 -0.0994,-26.15256 1.72277,-40.2759 7.72964,-59.91245 4.34299,-14.19731 8.85334,-23.12881 13.94177,-27.60783 9.52127,-8.38096 19.49752,-11.10192 40.7904,-11.1253 15.28631,-0.0168 16.16858,0.33538 9.43251,3.76516 -5.5813,2.84181 -16.23116,13.95011 -19.15912,19.98386 -2.8599,5.8935 -4.2997,13.3736 -6.62757,34.43176 -1.33095,12.04001 -1.65858,22.27855 -1.65858,51.83131 0,36.4627 0.51627,45.87447 3.70608,67.5626 2.67267,18.17202 10.04622,26.1147 28.89267,31.12272 l 7.13775,1.89669 -6.56602,3.02647 c -13.51374,6.22889 -21.64176,7.05827 -31.60346,3.22483 z"
       style="fill:#55ddff;stroke:#000000;stroke-width:5.15905;stroke-linejoin:bevel;stroke-miterlimit:4;stroke-dasharray:none;stroke-opacity:1" />
    <path
       transform="scale(0.26458333)"
       id="path1909"
       d="m 509.87822,693.12476 c -6.69598,-0.58338 -17.23566,-3.20737 -21.46676,-5.34442 -12.70509,-6.41714 -14.73735,-11.8204 -18.06532,-48.0312 -3.06108,-33.30693 -1.50375,-81.73647 3.66978,-114.12146 2.58765,-16.19801 15.99569,-29.06751 36.46338,-34.99882 7.21968,-2.09218 21.34354,-4.20676 28.09806,-4.20676 2.81589,0 2.74888,0.10557 -4.87114,7.67429 -24.42662,24.26222 -36.61347,60.92605 -34.77738,104.62689 1.84502,43.91346 7.9917,69.63735 21.0056,87.90859 l 3.02784,4.25103 -4.20338,1.43223 c -2.31186,0.78773 -4.43739,1.36345 -4.72339,1.27938 -0.286,-0.0841 -2.15678,-0.29546 -4.15729,-0.46975 z"
       style="fill:#55ddff;stroke:#000000;stroke-width:5.15905;stroke-linejoin:bevel;stroke-miterlimit:4;stroke-dasharray:none;stroke-opacity:1" />
    <path
       transform="scale(0.26458333)"
       id="path1911"
       d="m 561.48221,505.58609 c -15.62896,-0.71265 -28.4163,-1.59709 -28.4163,-1.96541 0,-0.92286 11.02524,-10.94679 15.21697,-13.83497 l 3.42412,-2.35929 23.99516,2.68081 c 25.25359,2.82141 34.57916,4.11874 35.3827,4.92228 0.26719,0.26719 -0.0939,0.48612 -0.80241,0.48652 -2.13023,10e-4 -11.92007,4.97398 -16.292,8.27561 l -4.09195,3.09019 z"
       style="fill:#55ddff;stroke:#000000;stroke-width:5.15905;stroke-linejoin:bevel;stroke-miterlimit:4;stroke-dasharray:none;stroke-opacity:1" />
    <path
       transform="scale(0.26458333)"
       id="path1913"
       d="m 536.24854,549.25145 c -12.50317,-2.85628 -23.23061,-5.37403 -23.83875,-5.595 -2.08044,-0.75594 8.39228,-23.92079 14.51446,-32.10484 1.21283,-1.62129 2.1804,-1.65083 22.11875,-0.67525 11.46773,0.56111 23.97618,1.26033 27.79655,1.55382 l 6.94611,0.53362 -5.00043,6.96155 c -5.3282,7.41785 -11.92051,19.83313 -15.2845,28.78526 -1.12762,3.00076 -2.60573,5.51851 -3.28469,5.595 -0.67895,0.0765 -11.46433,-2.19788 -23.9675,-5.05416 z"
       style="fill:#55ddff;stroke:#000000;stroke-width:5.15905;stroke-linejoin:bevel;stroke-miterlimit:4;stroke-dasharray:none;stroke-opacity:1" />
    <path
       transform="scale(0.26458333)"
       id="path1915"
       d="m 526.92799,594.39381 -22.05104,-4.61655 v -5.55338 c 0,-10.28878 3.68219,-34.08445 5.29062,-34.18995 0.34099,-0.0224 11.48453,2.30798 24.76344,5.17855 l 24.14346,5.21921 -2.51039,9.74854 c -1.38072,5.3617 -3.02481,14.07961 -3.65354,19.37313 -0.90484,7.61822 -1.43378,9.60712 -2.53732,9.54079 -0.7668,-0.0461 -11.31715,-2.16124 -23.44523,-4.70034 z"
       style="fill:#55ddff;stroke:#000000;stroke-width:5.15905;stroke-linejoin:bevel;stroke-miterlimit:4;stroke-dasharray:none;stroke-opacity:1" />
    <path
       transform="scale(0.26458333)"
       id="path1917"
       d="m 530.33795,628.39721 c -12.75323,-2.24221 -23.30604,-4.15753 -23.45069,-4.25627 -0.50733,-0.34634 -2.05656,-27.03849 -1.59606,-27.49899 0.25605,-0.25605 10.90665,1.71013 23.668,4.36928 l 23.20246,4.83483 0.0183,7.35047 c 0.0101,4.04276 0.40047,9.99492 0.86758,13.22702 0.46711,3.23211 0.76578,5.91567 0.6637,5.96347 -0.10207,0.0478 -10.62005,-1.74761 -23.37328,-3.98981 z"
       style="fill:#55ddff;stroke:#000000;stroke-width:5.15905;stroke-linejoin:bevel;stroke-miterlimit:4;stroke-dasharray:none;stroke-opacity:1" />
    <path
       transform="scale(0.26458333)"
       id="path1919"
       d="m 536.78609,659.27429 c -20.5863,-5.04405 -25.03576,-6.41321 -25.56886,-7.86787 -1.19969,-3.27357 -3.84494,-19.56339 -3.27017,-20.13815 0.59354,-0.59355 45.49824,6.96456 46.71718,7.86317 0.38146,0.28122 1.86806,4.19406 3.30357,8.6952 1.4355,4.50114 3.58073,10.11396 4.76718,12.47294 1.18644,2.35897 2.15717,4.50725 2.15717,4.77394 0,0.95181 -3.50255,0.22912 -28.10607,-5.79923 z"
       style="fill:#55ddff;stroke:#000000;stroke-width:5.15905;stroke-linejoin:bevel;stroke-miterlimit:4;stroke-dasharray:none;stroke-opacity:1" />
    <path
       transform="scale(0.26458333)"
       id="path1921"
       d="m 589.8985,701.37928 c -19.57288,-3.998 -36.32601,-6.63277 -46.25668,-7.27481 l -9.74334,-0.62992 -4.10609,-4.56696 c -2.25836,-2.51184 -5.70902,-7.26509 -7.66815,-10.56279 -3.63791,-6.12352 -8.54213,-17.24806 -7.89085,-17.89933 0.19868,-0.19868 12.78036,2.67273 27.9593,6.3809 20.51817,5.01254 27.90508,7.17266 28.79484,8.42035 6.32809,8.87373 17.90609,19.7237 26.75992,25.07725 6.58058,3.97901 6.5106,3.98842 -7.84895,1.05531 z"
       style="fill:#55ddff;stroke:#000000;stroke-width:5.15905;stroke-linejoin:bevel;stroke-miterlimit:4;stroke-dasharray:none;stroke-opacity:1" />
    <path
       transform="scale(0.26458333)"
       id="path1923"
       d="m 637.18321,703.5866 c 11.81241,-9.80005 18.15851,-17.23977 24.04245,-28.18568 7.49722,-13.94712 10.60215,-33.68411 9.77375,-62.12849 -0.52939,-18.17736 -5.0806,-68.70758 -6.96165,-77.29232 -2.98268,-13.61238 -8.60251,-25.57668 -15.31765,-32.61035 -3.07999,-3.22609 -3.1679,-3.45728 -1.0797,-2.83922 4.05276,1.19953 10.10874,5.18161 15.57082,10.23853 15.3292,14.19213 21.97927,33.87836 24.51472,72.57102 3.07848,46.9795 -3.60708,93.51512 -15.61473,108.68812 -6.28267,7.93885 -18.05401,13.32282 -30.83606,14.10379 l -7.72923,0.47224 z"
       style="fill:#55ddff;stroke:#000000;stroke-width:5.15905;stroke-linejoin:bevel;stroke-miterlimit:4;stroke-dasharray:none;stroke-opacity:1" />
    <path
       transform="scale(0.26458333)"
       id="path1925"
       d="m 615.81416,702.08576 c -28.51477,-10.33442 -48.61129,-35.37504 -55.40488,-69.03547 -4.73337,-23.4526 -2.94478,-47.09107 5.48433,-72.48209 11.46226,-34.5278 28.78925,-55.48076 49.73282,-60.14026 4.26206,-0.94822 8.46613,-1.30208 11.3756,-0.9575 17.27119,2.04552 29.1196,19.28344 32.40323,47.14256 5.27085,44.71909 6.82062,81.10019 4.2101,98.83235 -3.02004,20.5138 -8.36714,31.69855 -21.37695,44.71505 -7.00774,7.01134 -16.88256,14.58044 -18.84912,14.44794 -0.41537,-0.028 -3.82418,-1.16314 -7.57513,-2.52258 z"
       style="fill:#53676c;stroke:#000000;stroke-width:5.15905;stroke-linejoin:bevel;stroke-miterlimit:4;stroke-dasharray:none;stroke-opacity:1" />
  </g>
</svg>
